<svg version="1.1" xmlns="http://www.w3.org/2000/svg" width="293" height="337" viewBox="0 0 472 542">
<path d="M0,0 L4,0 L5,4 L5,56 L15,52 L32,47 L35,46 L42,46 L57,51 L67,54 L71,56 L71,4 L73,0 L79,1 L89,5 L111,14 L125,21 L126,38 L126,72 L142,74 L154,77 L154,55 L155,33 L158,32 L175,37 L191,43 L196,45 L197,46 L198,92 L212,99 L216,100 L217,53 L222,52 L240,58 L255,63 L261,65 L263,67 L263,268 L262,270 L258,269 L246,260 L238,254 L225,243 L225,158 L220,157 L203,152 L183,145 L164,139 L153,136 L145,133 L116,123 L104,120 L97,117 L87,114 L63,106 L43,100 L42,99 L35,99 L28,102 L7,108 L-8,113 L-16,116 L-45,125 L-75,135 L-83,138 L-104,144 L-126,152 L-147,158 L-149,158 L-148,165 L-148,236 L-149,244 L-163,255 L-166,256 L-166,258 L-184,271 L-186,271 L-187,262 L-187,68 L-183,64 L-165,59 L-152,54 L-142,52 L-140,56 L-140,101 L-123,93 L-121,93 L-121,46 L-112,42 L-98,37 L-91,35 L-85,33 L-79,33 L-78,45 L-77,77 L-52,72 L-49,72 L-49,22 L-41,17 L-30,12 L-14,6 Z " fill="#FA5408" transform="translate(198,10)"/>
<path d="M0,0 L3,3 L8,17 L12,31 L15,45 L18,52 L22,66 L22,74 L8,95 L6,95 L6,97 L4,97 L2,101 L-7,111 L-15,121 L-20,127 L5,114 L21,103 L30,97 L39,90 L44,85 L46,85 L46,83 L54,76 L63,68 L70,60 L76,51 L78,51 L80,47 L87,37 L92,27 L95,23 L102,24 L126,31 L128,35 L120,53 L112,69 L110,69 L109,73 L97,90 L89,101 L77,113 L76,115 L74,115 L72,119 L64,127 L62,127 L62,129 L45,142 L33,151 L23,158 L-2,172 L-23,183 L-39,191 L-52,196 L-57,199 L-62,201 L-69,200 L-94,189 L-110,181 L-126,173 L-147,161 L-163,151 L-177,140 L-189,131 L-192,129 L-192,127 L-194,127 L-194,125 L-196,125 L-196,123 L-198,123 L-205,115 L-220,100 L-228,88 L-238,74 L-246,60 L-252,49 L-257,35 L-257,32 L-231,24 L-225,23 L-220,29 L-220,32 L-218,32 L-212,44 L-210,48 L-206,50 L-199,60 L-190,71 L-180,79 L-180,81 L-178,81 L-178,83 L-174,85 L-167,92 L-146,106 L-137,112 L-127,118 L-110,126 L-121,113 L-130,102 L-135,97 L-142,88 L-149,77 L-152,72 L-148,55 L-145,47 L-141,33 L-138,19 L-135,11 L-131,1 L-126,2 L-113,10 L-108,31 L-106,34 L-103,44 L-100,47 L-90,53 L-78,59 L-64,62 L-50,58 L-38,52 L-28,45 L-23,34 L-19,21 L-16,9 Z " fill="#F5540E" transform="translate(301,331)"/>
<path d="M0,0 L4,2 L12,16 L21,33 L30,47 L34,56 L54,54 L66,52 L79,53 L100,56 L104,56 L108,48 L118,32 L126,16 L134,3 L137,0 L139,0 L144,20 L147,41 L151,59 L152,60 L154,73 L148,88 L144,101 L140,101 L136,95 L128,76 L127,71 L129,55 L132,36 L132,33 L127,47 L125,54 L119,71 L120,75 L130,92 L130,94 L132,94 L138,105 L142,113 L147,130 L151,141 L148,153 L144,163 L141,171 L134,176 L125,181 L112,191 L109,201 L107,213 L104,218 L99,223 L93,222 L77,214 L72,211 L72,201 L76,197 L85,192 L87,189 L86,182 L54,182 L52,187 L52,191 L61,196 L66,199 L66,211 L50,220 L43,223 L39,222 L32,215 L27,191 L14,181 L-1,172 L-4,168 L-9,153 L-12,146 L-12,139 L-7,126 L-3,113 L3,102 L10,89 L19,75 L18,66 L13,53 L11,46 L6,32 L9,52 L11,68 L11,75 L6,88 L0,98 L-2,101 L-5,101 L-12,81 L-15,73 L-14,62 L-11,53 L-7,31 L-6,22 L-5,21 L-2,7 Z M12,114 Z M125,114 L116,118 L109,123 L100,128 L93,133 L87,133 L83,130 L83,124 L87,118 L87,116 L83,118 L80,122 L80,124 L78,124 L76,128 L82,136 L86,150 L88,146 L89,141 L100,137 L113,134 L116,131 L120,122 L128,115 Z M13,115 L14,118 L19,122 L24,132 L27,134 L37,137 L50,141 L52,148 L54,145 L57,135 L62,129 L61,125 L54,119 L55,123 L57,129 L55,129 L55,131 L51,133 L45,132 L33,125 L20,116 Z M52,116 L53,118 Z M53,118 Z " fill="#F35B16" transform="translate(167,148)"/>
<path d="M0,0 L2,0 L1,12 L-1,23 L-4,32 L-8,49 L-4,46 L-1,38 L5,39 L19,47 L34,56 L41,60 L45,70 L48,84 L53,89 L66,99 L85,113 L94,120 L94,123 L75,124 L81,136 L87,137 L86,142 L79,152 L63,160 L58,162 L47,161 L33,156 L18,153 L9,150 L0,164 L-3,169 L-5,169 L-7,173 L-10,178 L-13,194 L-16,202 L-20,219 L-21,226 L-24,233 L-26,234 L-29,232 L-37,208 L-41,195 L-48,176 L-51,168 L-54,156 L-58,146 L-57,141 L-55,138 L-53,138 L-52,134 L-48,121 L-46,114 L-44,106 L-48,92 L-53,81 L-53,72 L-43,46 L-37,38 L-35,38 L-35,36 L-28,30 L-21,22 L-19,19 L-17,19 L-15,15 L-10,10 L-4,3 Z M6,81 L10,88 L15,94 L17,95 L30,97 L35,98 L33,94 L30,91 L28,91 L26,87 L16,83 L10,81 Z M35,98 Z " fill="#F05710" transform="translate(368,183)"/>
<path d="M0,0 L3,1 L3,3 L7,5 L12,11 L20,18 L24,24 L27,27 L27,29 L31,31 L39,39 L45,48 L54,69 L55,77 L49,93 L46,104 L47,114 L49,120 L53,133 L57,139 L60,142 L59,147 L53,164 L50,174 L46,185 L41,198 L36,215 L32,228 L29,233 L25,232 L22,223 L18,203 L12,182 L11,177 L5,169 L-1,159 L-6,151 L-9,150 L-22,154 L-38,158 L-50,162 L-57,162 L-72,154 L-78,151 L-82,146 L-86,140 L-86,137 L-78,136 L-76,129 L-75,124 L-92,123 L-93,120 L-81,111 L-70,103 L-54,91 L-48,87 L-45,79 L-43,70 L-39,60 L-15,46 L-5,40 L-1,38 L3,39 L6,48 L8,48 L7,39 L1,13 Z M9,49 Z M-9,81 L-16,84 L-24,87 L-36,99 L-34,100 L-28,97 L-15,95 L-10,90 L-4,81 Z M-37,100 Z " fill="#E84C11" transform="translate(103,183)"/>
<path d="M0,0 L9,0 L23,6 L26,9 L24,16 L22,18 L11,20 L-1,20 L-14,17 L-17,13 L-16,8 Z " fill="#FA5408" transform="translate(232,364)"/>
<path d="M0,0 L2,0 L1,8 L-5,32 L-7,39 L-12,39 L-22,32 L-25,30 L-24,22 L-20,18 L-18,18 L-18,16 L-16,16 L-14,12 L-6,6 Z " fill="#E84C11" transform="translate(393,185)"/>
<path d="M0,0 L5,2 L7,6 L11,8 L24,20 L27,24 L27,30 L19,36 L14,39 L10,39 L8,36 L5,22 L1,7 Z " fill="#E84C11" transform="translate(77,185)"/>
<path d="M0,0 L2,0 L1,4 L-1,4 L-10,14 L-21,25 L-22,31 L-25,30 L-24,22 L-20,18 L-18,18 L-18,16 L-16,16 L-14,12 L-6,6 Z " fill="#F05710" transform="translate(393,185)"/>
</svg>
